<svg width="18" height="17" viewBox="0 0 18 17" fill="none" xmlns="http://www.w3.org/2000/svg">
<path d="M15.8643 14.2529L13.3102 11.7194C14.3016 10.4832 14.7817 8.91418 14.6518 7.33487C14.5219 5.75556 13.7919 4.28604 12.6117 3.22848C11.4316 2.17092 9.89117 1.6057 8.30712 1.64905C6.72307 1.69239 5.21582 2.34101 4.09531 3.46152C2.9748 4.58204 2.32618 6.08928 2.28284 7.67333C2.23949 9.25738 2.80471 10.7978 3.86227 11.978C4.91983 13.1581 6.38935 13.8881 7.96866 14.018C9.54797 14.1479 11.117 13.6678 12.3532 12.6764L14.8867 15.2099C14.9507 15.2744 15.0269 15.3256 15.1108 15.3606C15.1947 15.3955 15.2846 15.4135 15.3755 15.4135C15.4664 15.4135 15.5564 15.3955 15.6403 15.3606C15.7242 15.3256 15.8003 15.2744 15.8643 15.2099C15.9884 15.0815 16.0578 14.91 16.0578 14.7314C16.0578 14.5529 15.9884 14.3813 15.8643 14.2529ZM8.49099 12.6764C7.53785 12.6764 6.60611 12.3937 5.8136 11.8642C5.02109 11.3347 4.4034 10.582 4.03865 9.70142C3.6739 8.82083 3.57846 7.85186 3.76441 6.91703C3.95036 5.9822 4.40934 5.1235 5.08332 4.44953C5.75729 3.77556 6.61599 3.31657 7.55082 3.13062C8.48564 2.94468 9.45462 3.04011 10.3352 3.40486C11.2158 3.76961 11.9685 4.3873 12.498 5.17981C13.0275 5.97232 13.3102 6.90406 13.3102 7.8572C13.3102 9.13533 12.8024 10.3611 11.8987 11.2649C10.9949 12.1686 9.76911 12.6764 8.49099 12.6764Z" fill="#667479"/>
</svg>
